Basteleur-Moonlight.ufo
<glyph name="parenright" format="2">
	<advance width="410"/>
	<unicode hex="0029"/>
	<anchor x="136" y="500" name="_top"/>
	<anchor x="136" y="765" name="top"/>
	<outline>
		<contour>
			<point x="76" y="816" type="curve"/>
			<point x="50" y="793" type="line"/>
			<point x="158" y="681"/>
			<point x="215" y="489"/>
			<point x="215" y="302" type="curve" smooth="yes"/>
			<point x="215" y="117"/>
			<point x="158" y="-75"/>
			<point x="50" y="-188" type="curve"/>
			<point x="76" y="-210" type="line"/>
			<point x="235" y="-91"/>
			<point x="330" y="79"/>
			<point x="330" y="302" type="curve" smooth="yes"/>
			<point x="330" y="526"/>
			<point x="235" y="697"/>
		</contour>
	</outline>
</glyph>
<glyph name="less" format="2">
	<advance width="457"/>
	<unicode hex="003C"/>
	<outline>
		<contour>
			<point x="30" y="393" type="line"/>
			<point x="30" y="369" type="line"/>
			<point x="381" y="138" type="line"/>
			<point x="407" y="159" type="line"/>
			<point x="167" y="381" type="line"/>
			<point x="407" y="603" type="line"/>
			<point x="381" y="624" type="line"/>
		</contour>
	</outline>
</glyph>
<glyph name="backslash" format="2">
	<advance width="487"/>
	<unicode hex="005C"/>
	<outline>
		<contour>
			<point x="385" y="-201" type="line"/>
			<point x="472" y="-201" type="line"/>
			<point x="101" y="800" type="line"/>
			<point x="15" y="800" type="line"/>
		</contour>
	</outline>
</glyph>
<glyph name="bracketright" format="2">
	<advance width="368"/>
	<unicode hex="005D"/>
	<outline>
		<contour>
			<point x="268" y="795" type="line"/>
			<point x="10" y="795" type="line"/>
			<point x="10" y="761" type="line"/>
			<point x="178" y="741" type="line"/>
			<point x="178" y="-155" type="line"/>
			<point x="10" y="-175" type="line"/>
			<point x="10" y="-209" type="line"/>
			<point x="268" y="-209" type="line"/>
		</contour>
	</outline>
</glyph>
<glyph name="braceright" format="2">
	<advance width="377"/>
	<unicode hex="007D"/>
	<anchor x="92" y="500" name="_top"/>
	<anchor x="92" y="765" name="top"/>
	<outline>
		<contour>
			<point x="20" y="826" type="curve"/>
			<point x="20" y="791" type="line"/>
			<point x="118" y="791"/>
			<point x="172" y="725"/>
			<point x="156" y="622" type="curve" smooth="yes"/>
			<point x="136" y="500" type="line" smooth="yes"/>
			<point x="117" y="380"/>
			<point x="192" y="303"/>
			<point x="327" y="303" type="curve"/>
			<point x="327" y="332" type="line"/>
			<point x="258" y="332"/>
			<point x="222" y="389"/>
			<point x="236" y="476" type="curve" smooth="yes"/>
			<point x="256" y="602" type="line" smooth="yes"/>
			<point x="278" y="738"/>
			<point x="186" y="826"/>
		</contour>
		<contour>
			<point x="20" y="-157" type="curve"/>
			<point x="20" y="-192" type="line"/>
			<point x="186" y="-192"/>
			<point x="278" y="-104"/>
			<point x="256" y="32" type="curve" smooth="yes"/>
			<point x="236" y="158" type="line" smooth="yes"/>
			<point x="222" y="245"/>
			<point x="258" y="302"/>
			<point x="327" y="302" type="curve"/>
			<point x="327" y="331" type="line"/>
			<point x="192" y="331"/>
			<point x="117" y="254"/>
			<point x="136" y="134" type="curve" smooth="yes"/>
			<point x="156" y="12" type="line" smooth="yes"/>
			<point x="172" y="-91"/>
			<point x="118" y="-157"/>
		</contour>
	</outline>
</glyph>
<glyph name="exclamdown" format="2">
	<advance width="308"/>
	<unicode hex="00A1"/>
	<outline>
		<contour>
			<point x="154" y="580" type="curve" smooth="yes"/>
			<point x="113" y="580"/>
			<point x="80" y="547"/>
			<point x="80" y="506" type="curve" smooth="yes"/>
			<point x="80" y="465"/>
			<point x="113" y="432"/>
			<point x="154" y="432" type="curve" smooth="yes"/>
			<point x="195" y="432"/>
			<point x="228" y="465"/>
			<point x="228" y="506" type="curve" smooth="yes"/>
			<point x="228" y="547"/>
			<point x="195" y="580"/>
		</contour>
		<contour>
			<point x="141" y="311" type="line"/>
			<point x="100" y="-196" type="line"/>
			<point x="208" y="-196" type="line"/>
			<point x="167" y="311" type="line"/>
		</contour>
	</outline>
</glyph>
<glyph name="copyright" format="2">
	<advance width="855"/>
	<unicode hex="00A9"/>
	<anchor x="426" y="-45" name="bottom"/>
	<anchor x="426" y="357" name="center"/>
	<anchor x="805" y="-29" name="ogonek"/>
	<anchor x="426" y="761" name="top"/>
	<anchor x="870" y="761" name="topright"/>
	<outline>
		<contour>
			<point x="426" y="-9" type="curve" smooth="yes"/>
			<point x="635" y="-9"/>
			<point x="805" y="155"/>
			<point x="805" y="360" type="curve" smooth="yes"/>
			<point x="805" y="571"/>
			<point x="635" y="726"/>
			<point x="426" y="726" type="curve" smooth="yes"/>
			<point x="218" y="726"/>
			<point x="50" y="562"/>
			<point x="50" y="360" type="curve" smooth="yes"/>
			<point x="50" y="145"/>
			<point x="218" y="-9"/>
		</contour>
		<contour>
			<point x="426" y="37" type="curve" smooth="yes"/>
			<point x="243" y="37"/>
			<point x="96" y="171"/>
			<point x="96" y="360" type="curve" smooth="yes"/>
			<point x="96" y="536"/>
			<point x="243" y="682"/>
			<point x="426" y="682" type="curve" smooth="yes"/>
			<point x="610" y="682"/>
			<point x="759" y="544"/>
			<point x="759" y="360" type="curve" smooth="yes"/>
			<point x="759" y="179"/>
			<point x="610" y="37"/>
		</contour>
		<contour>
			<point x="438" y="179" type="curve" smooth="yes"/>
			<point x="534" y="179"/>
			<point x="598" y="254"/>
			<point x="598" y="358" type="curve" smooth="yes"/>
			<point x="598" y="456"/>
			<point x="534" y="536"/>
			<point x="438" y="536" type="curve" smooth="yes"/>
			<point x="376" y="536"/>
			<point x="351" y="502"/>
			<point x="303" y="520" type="curve"/>
			<point x="295" y="514" type="line"/>
			<point x="304" y="475"/>
			<point x="310" y="433"/>
			<point x="311" y="386" type="curve"/>
			<point x="325" y="385" type="line"/>
			<point x="361" y="503"/>
			<point x="439" y="530"/>
			<point x="494" y="499" type="curve" smooth="yes"/>
			<point x="548" y="468"/>
			<point x="558" y="357"/>
			<point x="507" y="288" type="curve" smooth="yes"/>
			<point x="454" y="218"/>
			<point x="351" y="214"/>
			<point x="297" y="298" type="curve"/>
			<point x="286" y="291" type="line"/>
			<point x="305" y="227"/>
			<point x="375" y="179"/>
		</contour>
	</outline>
</glyph>
<glyph name="gravecomb" format="2">
	<advance width="0"/>
	<unicode hex="0300"/>
	<anchor x="225" y="550" name="_top"/>
	<anchor x="182" y="815" name="top"/>
	<outline>
		<contour>
			<point x="256" y="617" type="line"/>
			<point x="176" y="820" type="line"/>
			<point x="68" y="820" type="line"/>
			<point x="61" y="807" type="line"/>
			<point x="236" y="603" type="line"/>
		</contour>
	</outline>
</glyph>
<glyph name="dieresistonos" format="2">
	<advance width="506"/>
	<unicode hex="0385"/>
	<outline>
		<contour>
			<point x="402" y="643" type="curve" smooth="yes"/>
			<point x="435" y="643"/>
			<point x="461" y="670"/>
			<point x="461" y="702" type="curve" smooth="yes"/>
			<point x="461" y="735"/>
			<point x="435" y="762"/>
			<point x="402" y="762" type="curve" smooth="yes"/>
			<point x="369" y="762"/>
			<point x="343" y="735"/>
			<point x="343" y="702" type="curve" smooth="yes"/>
			<point x="343" y="670"/>
			<point x="369" y="643"/>
		</contour>
		<contour>
			<point x="99" y="643" type="curve" smooth="yes"/>
			<point x="132" y="643"/>
			<point x="158" y="670"/>
			<point x="158" y="702" type="curve" smooth="yes"/>
			<point x="158" y="735"/>
			<point x="132" y="762"/>
			<point x="99" y="762" type="curve" smooth="yes"/>
			<point x="66" y="762"/>
			<point x="40" y="735"/>
			<point x="40" y="702" type="curve" smooth="yes"/>
			<point x="40" y="670"/>
			<point x="66" y="643"/>
		</contour>
		<contour>
			<point x="173" y="617" type="line"/>
			<point x="193" y="603" type="line"/>
			<point x="368" y="807" type="line"/>
			<point x="361" y="820" type="line"/>
			<point x="253" y="820" type="line"/>
		</contour>
	</outline>
</glyph>
<glyph name="uni0394" format="2">
	<advance width="784"/>
	<unicode hex="0394"/>
	<outline>
		<contour>
			<point x="759" y="-6" type="curve"/>
			<point x="764" y="23" type="line"/>
			<point x="733" y="45"/>
			<point x="694" y="102"/>
			<point x="659" y="179" type="curve" smooth="yes"/>
			<point x="396" y="760" type="line"/>
			<point x="372" y="760" type="line"/>
			<point x="138" y="200" type="line" smooth="yes"/>
			<point x="101" y="112"/>
			<point x="47" y="40"/>
			<point x="20" y="23" type="curve"/>
			<point x="24" y="-6" type="line"/>
			<point x="120" y="0"/>
			<point x="156" y="0"/>
			<point x="272" y="0" type="curve" smooth="yes"/>
			<point x="448" y="0" type="line" smooth="yes"/>
			<point x="589" y="0"/>
			<point x="638" y="0"/>
		</contour>
		<contour>
			<point x="176" y="188" type="curve" smooth="yes"/>
			<point x="362" y="634" type="line"/>
			<point x="346" y="634" type="line"/>
			<point x="551" y="173" type="line" smooth="yes"/>
			<point x="582" y="103"/>
			<point x="596" y="84"/>
			<point x="525" y="84" type="curve" smooth="yes"/>
			<point x="462" y="84"/>
			<point x="427" y="86"/>
			<point x="364" y="86" type="curve" smooth="yes"/>
			<point x="295" y="86"/>
			<point x="256" y="84"/>
			<point x="187" y="84" type="curve" smooth="yes"/>
			<point x="128" y="84"/>
			<point x="146" y="117"/>
		</contour>
	</outline>
</glyph>
<glyph name="Theta" format="2">
	<advance width="824"/>
	<unicode hex="0398"/>
	<outline>
		<contour>
			<point x="580" y="247" type="curve"/>
			<point x="605" y="256" type="line"/>
			<point x="582" y="357"/>
			<point x="571" y="374"/>
			<point x="558" y="489" type="curve"/>
			<point x="533" y="489" type="line"/>
			<point x="522" y="414"/>
			<point x="495" y="388"/>
			<point x="423" y="388" type="curve" smooth="yes"/>
			<point x="398" y="388" type="line" smooth="yes"/>
			<point x="319" y="388"/>
			<point x="298" y="391"/>
			<point x="251" y="489" type="curve"/>
			<point x="226" y="480" type="line"/>
			<point x="249" y="379"/>
			<point x="260" y="362"/>
			<point x="273" y="247" type="curve"/>
			<point x="298" y="247" type="line"/>
			<point x="309" y="322"/>
			<point x="336" y="348"/>
			<point x="408" y="348" type="curve" smooth="yes"/>
			<point x="433" y="348" type="line" smooth="yes"/>
			<point x="512" y="348"/>
			<point x="533" y="345"/>
		</contour>
		<contour>
			<point x="412" y="-15" type="curve" smooth="yes"/>
			<point x="622" y="-15"/>
			<point x="794" y="159"/>
			<point x="794" y="374" type="curve" smooth="yes"/>
			<point x="794" y="597"/>
			<point x="622" y="760"/>
			<point x="412" y="760" type="curve" smooth="yes"/>
			<point x="201" y="760"/>
			<point x="30" y="587"/>
			<point x="30" y="374" type="curve" smooth="yes"/>
			<point x="30" y="149"/>
			<point x="201" y="-15"/>
		</contour>
		<contour>
			<point x="536" y="49" type="curve" smooth="yes"/>
			<point x="397" y="0"/>
			<point x="238" y="93"/>
			<point x="175" y="257" type="curve" smooth="yes"/>
			<point x="99" y="453"/>
			<point x="146" y="645"/>
			<point x="282" y="694" type="curve" smooth="yes"/>
			<point x="416" y="740"/>
			<point x="577" y="651"/>
			<point x="648" y="493" type="curve" smooth="yes"/>
			<point x="734" y="298"/>
			<point x="685" y="102"/>
		</contour>
	</outline>
</glyph>
<glyph name="Xi" format="2">
	<advance width="796"/>
	<unicode hex="039E"/>
	<outline>
		<contour>
			<point x="48" y="307" type="curve"/>
			<point x="20" y="307" type="line"/>
			<point x="54" y="-6" type="line"/>
			<point x="169" y="2"/>
			<point x="263" y="1"/>
			<point x="398" y="2" type="curve" smooth="yes"/>
			<point x="533" y="2"/>
			<point x="627" y="2"/>
			<point x="742" y="-6" type="curve"/>
			<point x="776" y="307" type="line"/>
			<point x="748" y="307" type="line"/>
			<point x="698" y="95"/>
			<point x="626" y="40"/>
			<point x="547" y="40" type="curve" smooth="yes"/>
			<point x="454" y="40"/>
			<point x="443" y="84"/>
			<point x="443" y="172" type="curve" smooth="yes"/>
			<point x="443" y="573" type="line" smooth="yes"/>
			<point x="443" y="661"/>
			<point x="454" y="705"/>
			<point x="537" y="705" type="curve" smooth="yes"/>
			<point x="603" y="705"/>
			<point x="668" y="637"/>
			<point x="715" y="498" type="curve"/>
			<point x="743" y="498" type="line"/>
			<point x="709" y="751" type="line"/>
			<point x="605" y="744"/>
			<point x="502" y="744"/>
			<point x="398" y="743" type="curve" smooth="yes"/>
			<point x="274" y="743"/>
			<point x="191" y="744"/>
			<point x="87" y="751" type="curve"/>
			<point x="53" y="498" type="line"/>
			<point x="81" y="498" type="line"/>
			<point x="128" y="637"/>
			<point x="193" y="705"/>
			<point x="259" y="705" type="curve" smooth="yes"/>
			<point x="342" y="705"/>
			<point x="353" y="661"/>
			<point x="353" y="573" type="curve" smooth="yes"/>
			<point x="353" y="172" type="line" smooth="yes"/>
			<point x="353" y="84"/>
			<point x="342" y="40"/>
			<point x="249" y="40" type="curve" smooth="yes"/>
			<point x="170" y="40"/>
			<point x="98" y="95"/>
		</contour>
		<contour>
			<point x="621" y="231" type="curve"/>
			<point x="646" y="240" type="line"/>
			<point x="623" y="341"/>
			<point x="613" y="384"/>
			<point x="610" y="499" type="curve"/>
			<point x="585" y="499" type="line"/>
			<point x="564" y="424"/>
			<point x="526" y="398"/>
			<point x="474" y="398" type="curve" smooth="yes"/>
			<point x="417" y="398" type="line"/>
			<point x="417" y="358" type="line"/>
			<point x="484" y="358" type="line" smooth="yes"/>
			<point x="543" y="358"/>
			<point x="574" y="329"/>
		</contour>
		<contour>
			<point x="150" y="240" type="curve"/>
			<point x="175" y="231" type="line"/>
			<point x="222" y="329"/>
			<point x="253" y="358"/>
			<point x="312" y="358" type="curve" smooth="yes"/>
			<point x="379" y="358" type="line"/>
			<point x="379" y="398" type="line"/>
			<point x="322" y="398" type="line" smooth="yes"/>
			<point x="270" y="398"/>
			<point x="232" y="424"/>
			<point x="211" y="499" type="curve"/>
			<point x="186" y="499" type="line"/>
			<point x="183" y="384"/>
			<point x="173" y="341"/>
		</contour>
	</outline>
</glyph>
<glyph name="Pi" format="2">
	<advance width="953"/>
	<unicode hex="03A0"/>
	<outline>
		<contour>
			<point x="60" y="21" type="curve"/>
			<point x="64" y="-7" type="line"/>
			<point x="125" y="-2"/>
			<point x="175" y="0"/>
			<point x="207" y="0" type="curve" smooth="yes"/>
			<point x="239" y="0"/>
			<point x="299" y="-2"/>
			<point x="348" y="-7" type="curve"/>
			<point x="352" y="21" type="line"/>
			<point x="272" y="48"/>
			<point x="251" y="86"/>
			<point x="251" y="162" type="curve" smooth="yes"/>
			<point x="251" y="602" type="line" smooth="yes"/>
			<point x="251" y="690"/>
			<point x="252" y="704"/>
			<point x="345" y="704" type="curve" smooth="yes"/>
			<point x="608" y="704" type="line" smooth="yes"/>
			<point x="701" y="704"/>
			<point x="702" y="690"/>
			<point x="702" y="602" type="curve" smooth="yes"/>
			<point x="702" y="162" type="line" smooth="yes"/>
			<point x="702" y="86"/>
			<point x="681" y="48"/>
			<point x="601" y="21" type="curve"/>
			<point x="605" y="-7" type="line"/>
			<point x="654" y="-2"/>
			<point x="714" y="0"/>
			<point x="746" y="0" type="curve" smooth="yes"/>
			<point x="778" y="0"/>
			<point x="828" y="-2"/>
			<point x="889" y="-7" type="curve"/>
			<point x="893" y="21" type="line"/>
			<point x="813" y="47"/>
			<point x="792" y="86"/>
			<point x="792" y="162" type="curve" smooth="yes"/>
			<point x="792" y="582" type="line" smooth="yes"/>
			<point x="792" y="658"/>
			<point x="813" y="697"/>
			<point x="893" y="723" type="curve"/>
			<point x="889" y="751" type="line"/>
			<point x="828" y="746"/>
			<point x="778" y="744"/>
			<point x="575" y="744" type="curve" smooth="yes"/>
			<point x="378" y="744" type="line" smooth="yes"/>
			<point x="175" y="744"/>
			<point x="125" y="746"/>
			<point x="64" y="751" type="curve"/>
			<point x="60" y="723" type="line"/>
			<point x="140" y="697"/>
			<point x="161" y="658"/>
			<point x="161" y="582" type="curve" smooth="yes"/>
			<point x="161" y="162" type="line" smooth="yes"/>
			<point x="161" y="86"/>
			<point x="140" y="47"/>
		</contour>
	</outline>
</glyph>
<glyph name="Sigma" format="2">
	<advance width="721"/>
	<unicode hex="03A3"/>
	<outline>
		<contour>
			<point x="322" y="346" type="line"/>
			<point x="424" y="390" type="line"/>
			<point x="172" y="715" type="line"/>
			<point x="85" y="708" type="line"/>
			<point x="346" y="703" type="line" smooth="yes"/>
			<point x="477" y="700"/>
			<point x="561" y="652"/>
			<point x="597" y="457" type="curve"/>
			<point x="623" y="460" type="line"/>
			<point x="614" y="568"/>
			<point x="620" y="676"/>
			<point x="646" y="752" type="curve"/>
			<point x="625" y="764" type="line"/>
			<point x="560" y="745"/>
			<point x="476" y="745"/>
			<point x="299" y="745" type="curve" smooth="yes"/>
			<point x="44" y="745" type="line"/>
			<point x="35" y="722" type="line"/>
		</contour>
		<contour>
			<point x="424" y="390" type="line"/>
			<point x="322" y="346" type="line"/>
			<point x="30" y="22" type="line"/>
			<point x="41" y="0" type="line"/>
			<point x="685" y="0" type="line"/>
			<point x="701" y="17" type="line"/>
			<point x="684" y="81"/>
			<point x="672" y="170"/>
			<point x="670" y="288" type="curve"/>
			<point x="644" y="289" type="line"/>
			<point x="634" y="131"/>
			<point x="589" y="102"/>
			<point x="427" y="97" type="curve" smooth="yes"/>
			<point x="115" y="88" type="line"/>
			<point x="145" y="81" type="line"/>
		</contour>
	</outline>
</glyph>
<glyph name="Phi" format="2">
	<advance width="866"/>
	<unicode hex="03A6"/>
	<anchor x="227" y="0" name="bottom"/>
	<anchor x="227" y="0" name="ogonek"/>
	<anchor x="227" y="0" name="top"/>
	<anchor x="227" y="0" name="topleft"/>
	<outline>
		<contour>
			<point x="287" y="21" type="curve"/>
			<point x="291" y="-7" type="line"/>
			<point x="352" y="-2"/>
			<point x="402" y="0"/>
			<point x="434" y="0" type="curve" smooth="yes"/>
			<point x="466" y="0"/>
			<point x="526" y="-2"/>
			<point x="575" y="-7" type="curve"/>
			<point x="579" y="21" type="line"/>
			<point x="499" y="48"/>
			<point x="478" y="86"/>
			<point x="478" y="162" type="curve" smooth="yes"/>
			<point x="478" y="583" type="line" smooth="yes"/>
			<point x="478" y="659"/>
			<point x="499" y="697"/>
			<point x="579" y="724" type="curve"/>
			<point x="575" y="752" type="line"/>
			<point x="526" y="747"/>
			<point x="466" y="745"/>
			<point x="434" y="745" type="curve" smooth="yes"/>
			<point x="402" y="745"/>
			<point x="352" y="747"/>
			<point x="291" y="752" type="curve"/>
			<point x="287" y="724" type="line"/>
			<point x="367" y="698"/>
			<point x="388" y="659"/>
			<point x="388" y="583" type="curve" smooth="yes"/>
			<point x="388" y="162" type="line" smooth="yes"/>
			<point x="388" y="86"/>
			<point x="367" y="47"/>
		</contour>
		<contour>
			<point x="520" y="584" type="curve" smooth="yes"/>
			<point x="465" y="579" type="line"/>
			<point x="465" y="540" type="line"/>
			<point x="520" y="545" type="line" smooth="yes"/>
			<point x="660" y="558"/>
			<point x="726" y="488"/>
			<point x="726" y="378" type="curve" smooth="yes"/>
			<point x="726" y="268"/>
			<point x="660" y="198"/>
			<point x="520" y="211" type="curve" smooth="yes"/>
			<point x="465" y="216" type="line"/>
			<point x="465" y="177" type="line"/>
			<point x="520" y="172" type="line" smooth="yes"/>
			<point x="741" y="152"/>
			<point x="846" y="242"/>
			<point x="846" y="378" type="curve" smooth="yes"/>
			<point x="846" y="514"/>
			<point x="741" y="604"/>
		</contour>
		<contour>
			<point x="346" y="545" type="curve" smooth="yes"/>
			<point x="401" y="540" type="line"/>
			<point x="401" y="579" type="line"/>
			<point x="346" y="584" type="line" smooth="yes"/>
			<point x="125" y="604"/>
			<point x="20" y="514"/>
			<point x="20" y="378" type="curve" smooth="yes"/>
			<point x="20" y="242"/>
			<point x="125" y="152"/>
			<point x="346" y="172" type="curve" smooth="yes"/>
			<point x="401" y="177" type="line"/>
			<point x="401" y="216" type="line"/>
			<point x="346" y="211" type="line" smooth="yes"/>
			<point x="206" y="198"/>
			<point x="140" y="268"/>
			<point x="140" y="378" type="curve" smooth="yes"/>
			<point x="140" y="488"/>
			<point x="206" y="558"/>
		</contour>
	</outline>
</glyph>
<glyph name="Psi" format="2">
	<advance width="1092"/>
	<unicode hex="03A8"/>
	<outline>
		<contour>
			<point x="400" y="21" type="curve"/>
			<point x="404" y="-7" type="line"/>
			<point x="465" y="-2"/>
			<point x="515" y="0"/>
			<point x="547" y="0" type="curve" smooth="yes"/>
			<point x="579" y="0"/>
			<point x="639" y="-2"/>
			<point x="688" y="-7" type="curve"/>
			<point x="692" y="21" type="line"/>
			<point x="612" y="48"/>
			<point x="591" y="86"/>
			<point x="591" y="162" type="curve" smooth="yes"/>
			<point x="591" y="583" type="line" smooth="yes"/>
			<point x="591" y="659"/>
			<point x="612" y="697"/>
			<point x="692" y="724" type="curve"/>
			<point x="688" y="752" type="line"/>
			<point x="639" y="747"/>
			<point x="579" y="745"/>
			<point x="547" y="745" type="curve" smooth="yes"/>
			<point x="515" y="745"/>
			<point x="465" y="747"/>
			<point x="404" y="752" type="curve"/>
			<point x="400" y="724" type="line"/>
			<point x="480" y="698"/>
			<point x="501" y="659"/>
			<point x="501" y="583" type="curve" smooth="yes"/>
			<point x="501" y="162" type="line" smooth="yes"/>
			<point x="501" y="86"/>
			<point x="480" y="47"/>
		</contour>
		<contour>
			<point x="507" y="225" type="curve"/>
			<point x="527" y="268" type="line"/>
			<point x="293" y="248"/>
			<point x="211" y="374"/>
			<point x="211" y="583" type="curve" smooth="yes"/>
			<point x="211" y="659"/>
			<point x="227" y="696"/>
			<point x="347" y="722" type="curve"/>
			<point x="343" y="752" type="line"/>
			<point x="272" y="748"/>
			<point x="228" y="745"/>
			<point x="186" y="745" type="curve" smooth="yes"/>
			<point x="144" y="745"/>
			<point x="104" y="746"/>
			<point x="24" y="752" type="curve"/>
			<point x="20" y="724" type="line"/>
			<point x="100" y="697"/>
			<point x="121" y="659"/>
			<point x="121" y="583" type="curve" smooth="yes"/>
			<point x="121" y="318"/>
			<point x="236" y="225"/>
		</contour>
		<contour>
			<point x="565" y="268" type="curve"/>
			<point x="585" y="225" type="line"/>
			<point x="856" y="225"/>
			<point x="971" y="318"/>
			<point x="971" y="583" type="curve" smooth="yes"/>
			<point x="971" y="659"/>
			<point x="992" y="697"/>
			<point x="1072" y="724" type="curve"/>
			<point x="1068" y="752" type="line"/>
			<point x="988" y="746"/>
			<point x="948" y="745"/>
			<point x="906" y="745" type="curve" smooth="yes"/>
			<point x="864" y="745"/>
			<point x="820" y="748"/>
			<point x="749" y="752" type="curve"/>
			<point x="745" y="722" type="line"/>
			<point x="865" y="696"/>
			<point x="881" y="659"/>
			<point x="881" y="583" type="curve" smooth="yes"/>
			<point x="881" y="374"/>
			<point x="799" y="248"/>
		</contour>
	</outline>
</glyph>
<glyph name="uni03A9" format="2">
	<advance width="1016"/>
	<unicode hex="03A9"/>
	<outline>
		<contour>
			<point x="497" y="25" type="curve"/>
			<point x="497" y="40" type="line"/>
			<point x="322" y="78"/>
			<point x="229" y="286"/>
			<point x="229" y="451" type="curve" smooth="yes"/>
			<point x="229" y="597"/>
			<point x="308" y="709"/>
			<point x="458" y="709" type="curve" smooth="yes"/>
			<point x="644" y="709"/>
			<point x="781" y="489"/>
			<point x="781" y="313" type="curve" smooth="yes"/>
			<point x="781" y="183"/>
			<point x="725" y="84"/>
			<point x="626" y="49" type="curve" smooth="yes"/>
			<point x="614" y="45"/>
			<point x="602" y="42"/>
			<point x="590" y="40" type="curve"/>
			<point x="590" y="5" type="line"/>
			<point x="758" y="45"/>
			<point x="884" y="190"/>
			<point x="884" y="384" type="curve" smooth="yes"/>
			<point x="884" y="607"/>
			<point x="712" y="760"/>
			<point x="502" y="760" type="curve" smooth="yes"/>
			<point x="291" y="760"/>
			<point x="120" y="607"/>
			<point x="120" y="394" type="curve" smooth="yes"/>
			<point x="120" y="171"/>
			<point x="318" y="27"/>
		</contour>
		<contour>
			<point x="767" y="50" type="curve" smooth="yes"/>
			<point x="590" y="30" type="line"/>
			<point x="590" y="0" type="line"/>
			<point x="709" y="-1"/>
			<point x="869" y="0"/>
			<point x="962" y="-6" type="curve"/>
			<point x="996" y="307" type="line"/>
			<point x="968" y="307" type="line"/>
			<point x="918" y="95"/>
			<point x="846" y="59"/>
		</contour>
		<contour>
			<point x="497" y="0" type="curve"/>
			<point x="497" y="30" type="line"/>
			<point x="249" y="50" type="line" smooth="yes"/>
			<point x="170" y="56"/>
			<point x="98" y="95"/>
			<point x="48" y="307" type="curve"/>
			<point x="20" y="307" type="line"/>
			<point x="54" y="-6" type="line"/>
			<point x="162" y="1"/>
			<point x="376" y="0"/>
		</contour>
	</outline>
</glyph>
<glyph name="beta" format="2">
	<advance width="629"/>
	<unicode hex="03B2"/>
	<outline>
		<contour>
			<point x="545" y="595" type="curve" smooth="yes"/>
			<point x="546" y="524"/>
			<point x="494" y="459"/>
			<point x="404" y="440" type="curve"/>
			<point x="494" y="429"/>
			<point x="594" y="362"/>
			<point x="594" y="238" type="curve" smooth="yes"/>
			<point x="594" y="90"/>
			<point x="476" y="-15"/>
			<point x="321" y="-15" type="curve" smooth="yes"/>
			<point x="153" y="-15"/>
			<point x="35" y="150"/>
			<point x="35" y="398" type="curve" smooth="yes"/>
			<point x="35" y="668"/>
			<point x="163" y="819"/>
			<point x="321" y="819" type="curve" smooth="yes"/>
			<point x="436" y="819"/>
			<point x="545" y="733"/>
		</contour>
		<contour>
			<point x="486" y="240" type="curve" smooth="yes"/>
			<point x="486" y="337"/>
			<point x="420" y="422"/>
			<point x="365" y="422" type="curve"/>
			<point x="262" y="397" type="line"/>
			<point x="254" y="402" type="line"/>
			<point x="230" y="474" type="line"/>
			<point x="237" y="479" type="line"/>
			<point x="365" y="454" type="line"/>
			<point x="420" y="454"/>
			<point x="443" y="519"/>
			<point x="443" y="575" type="curve" smooth="yes"/>
			<point x="443" y="683"/>
			<point x="369" y="770"/>
			<point x="281" y="770" type="curve" smooth="yes"/>
			<point x="191" y="770"/>
			<point x="136" y="699"/>
			<point x="136" y="498" type="curve" smooth="yes"/>
			<point x="136" y="248"/>
			<point x="225" y="26"/>
			<point x="369" y="26" type="curve" smooth="yes"/>
			<point x="462" y="26"/>
			<point x="486" y="140"/>
		</contour>
	</outline>
</glyph>
<glyph name="gamma" format="2">
	<advance width="617"/>
	<unicode hex="03B3"/>
	<outline>
		<contour>
			<point x="-26" y="550" type="curve"/>
			<point x="-30" y="522" type="line"/>
			<point x="46" y="496"/>
			<point x="88" y="447"/>
			<point x="124" y="364" type="curve" smooth="yes"/>
			<point x="286" y="-15" type="line"/>
			<point x="307" y="-15" type="line"/>
			<point x="503" y="372" type="line" smooth="yes"/>
			<point x="539" y="443"/>
			<point x="567" y="485"/>
			<point x="647" y="522" type="curve"/>
			<point x="643" y="550" type="line"/>
			<point x="594" y="545"/>
			<point x="538" y="543"/>
			<point x="506" y="543" type="curve" smooth="yes"/>
			<point x="474" y="543"/>
			<point x="455" y="545"/>
			<point x="404" y="550" type="curve"/>
			<point x="400" y="522" type="line"/>
			<point x="480" y="508"/>
			<point x="498" y="452"/>
			<point x="466" y="388" type="curve" smooth="yes"/>
			<point x="312" y="78" type="line"/>
			<point x="341" y="110" type="line"/>
			<point x="227" y="382" type="line" smooth="yes"/>
			<point x="197" y="453"/>
			<point x="184" y="508"/>
			<point x="255" y="522" type="curve"/>
			<point x="251" y="550" type="line"/>
			<point x="192" y="545"/>
			<point x="155" y="543"/>
			<point x="123" y="543" type="curve" smooth="yes"/>
			<point x="91" y="543"/>
			<point x="35" y="545"/>
		</contour>
		<contour>
			<point x="347" y="88" type="curve"/>
			<point x="279" y="40" type="line"/>
			<point x="189" y="-121"/>
			<point x="168" y="-250"/>
			<point x="297" y="-250" type="curve" smooth="yes"/>
			<point x="456" y="-250"/>
			<point x="437" y="-112"/>
		</contour>
		<contour>
			<point x="286" y="-26" type="curve"/>
			<point x="321" y="-105"/>
			<point x="335" y="-208"/>
			<point x="287" y="-208" type="curve" smooth="yes"/>
			<point x="238" y="-208"/>
			<point x="229" y="-145"/>
		</contour>
	</outline>
</glyph>
<glyph name="delta" format="2">
	<advance width="627"/>
	<unicode hex="03B4"/>
	<outline>
		<contour>
			<point x="301" y="-15" type="curve" smooth="yes"/>
			<point x="458" y="-15"/>
			<point x="592" y="90"/>
			<point x="592" y="276" type="curve"/>
			<point x="509" y="402" type="line"/>
			<point x="474" y="459"/>
			<point x="395" y="523"/>
			<point x="291" y="523" type="curve" smooth="yes"/>
			<point x="153" y="523"/>
			<point x="35" y="406"/>
			<point x="35" y="256" type="curve" smooth="yes"/>
			<point x="35" y="98"/>
			<point x="153" y="-15"/>
		</contour>
		<contour>
			<point x="398" y="41" type="curve" smooth="yes"/>
			<point x="313" y="11"/>
			<point x="209" y="70"/>
			<point x="159" y="195" type="curve" smooth="yes"/>
			<point x="108" y="320"/>
			<point x="135" y="440"/>
			<point x="232" y="475" type="curve" smooth="yes"/>
			<point x="317" y="506"/>
			<point x="428" y="465"/>
			<point x="477" y="327" type="curve" smooth="yes"/>
			<point x="527" y="187"/>
			<point x="486" y="71"/>
		</contour>
		<contour>
			<point x="492" y="316" type="curve"/>
			<point x="592" y="276" type="line"/>
			<point x="592" y="526"/>
			<point x="249" y="726"/>
			<point x="94" y="786" type="curve"/>
			<point x="85" y="763" type="line"/>
			<point x="229" y="683"/>
			<point x="462" y="501"/>
		</contour>
		<contour>
			<point x="536" y="707" type="line"/>
			<point x="567" y="791" type="line"/>
			<point x="558" y="805" type="line"/>
			<point x="445" y="787"/>
			<point x="225" y="791"/>
			<point x="94" y="791" type="curve"/>
			<point x="85" y="763" type="line"/>
		</contour>
	</outline>
</glyph>
<glyph name="epsilon" format="2">
	<advance width="538"/>
	<unicode hex="03B5"/>
	<outline>
		<contour>
			<point x="246" y="-15" type="curve" smooth="yes"/>
			<point x="369" y="-15"/>
			<point x="472" y="63"/>
			<point x="513" y="168" type="curve"/>
			<point x="495" y="179" type="line"/>
			<point x="436" y="102"/>
			<point x="378" y="72"/>
			<point x="291" y="72" type="curve" smooth="yes"/>
			<point x="182" y="72"/>
			<point x="145" y="132"/>
			<point x="145" y="188" type="curve" smooth="yes"/>
			<point x="145" y="235"/>
			<point x="176" y="278"/>
			<point x="220" y="278" type="curve"/>
			<point x="343" y="257" type="line"/>
			<point x="351" y="262" type="line"/>
			<point x="374" y="334" type="line"/>
			<point x="367" y="339" type="line"/>
			<point x="230" y="313" type="line"/>
			<point x="175" y="313"/>
			<point x="142" y="369"/>
			<point x="142" y="415" type="curve" smooth="yes"/>
			<point x="142" y="480"/>
			<point x="187" y="530"/>
			<point x="258" y="530" type="curve" smooth="yes"/>
			<point x="334" y="530"/>
			<point x="392" y="474"/>
			<point x="445" y="360" type="curve"/>
			<point x="467" y="362" type="line"/>
			<point x="467" y="418"/>
			<point x="474" y="477"/>
			<point x="494" y="530" type="curve"/>
			<point x="481" y="540" type="line"/>
			<point x="413" y="490"/>
			<point x="379" y="565"/>
			<point x="258" y="565" type="curve" smooth="yes"/>
			<point x="126" y="565"/>
			<point x="40" y="493"/>
			<point x="40" y="415" type="curve" smooth="yes"/>
			<point x="40" y="344"/>
			<point x="96" y="306"/>
			<point x="176" y="297" type="curve"/>
			<point x="96" y="276"/>
			<point x="25" y="236"/>
			<point x="25" y="142" type="curve" smooth="yes"/>
			<point x="25" y="44"/>
			<point x="129" y="-15"/>
		</contour>
	</outline>
</glyph>
<glyph name="zeta" format="2">
	<advance width="473"/>
	<unicode hex="03B6"/>
	<outline>
		<contour>
			<point x="368" y="-85" type="curve" smooth="yes"/>
			<point x="368" y="-124"/>
			<point x="317" y="-158"/>
			<point x="240" y="-158" type="curve" smooth="yes"/>
			<point x="207" y="-158"/>
			<point x="163" y="-156"/>
			<point x="120" y="-140" type="curve"/>
			<point x="113" y="-163" type="line"/>
			<point x="156" y="-185"/>
			<point x="217" y="-193"/>
			<point x="260" y="-193" type="curve" smooth="yes"/>
			<point x="361" y="-193"/>
			<point x="446" y="-149"/>
			<point x="446" y="-53" type="curve" smooth="yes"/>
			<point x="446" y="140"/>
			<point x="128" y="103"/>
			<point x="128" y="366" type="curve" smooth="yes"/>
			<point x="128" y="561"/>
			<point x="359" y="713"/>
			<point x="463" y="763" type="curve"/>
			<point x="454" y="786" type="line"/>
			<point x="299" y="726"/>
			<point x="35" y="556"/>
			<point x="35" y="306" type="curve" smooth="yes"/>
			<point x="35" y="13"/>
			<point x="368" y="39"/>
		</contour>
		<contour>
			<point x="60" y="805" type="curve"/>
			<point x="51" y="791" type="line"/>
			<point x="67" y="707" type="line"/>
			<point x="463" y="763" type="line"/>
			<point x="454" y="791" type="line"/>
			<point x="323" y="791"/>
			<point x="173" y="787"/>
		</contour>
	</outline>
</glyph>
<glyph name="theta" format="2">
	<advance width="642"/>
	<unicode hex="03B8"/>
	<outline>
		<contour>
			<point x="321" y="-15" type="curve" smooth="yes"/>
			<point x="488" y="-15"/>
			<point x="607" y="147"/>
			<point x="607" y="408" type="curve" smooth="yes"/>
			<point x="607" y="665"/>
			<point x="478" y="819"/>
			<point x="321" y="819" type="curve" smooth="yes"/>
			<point x="163" y="819"/>
			<point x="35" y="678"/>
			<point x="35" y="408" type="curve" smooth="yes"/>
			<point x="35" y="160"/>
			<point x="153" y="-15"/>
		</contour>
		<contour>
			<point x="369" y="34" type="curve" smooth="yes"/>
			<point x="225" y="34"/>
			<point x="136" y="248"/>
			<point x="136" y="498" type="curve" smooth="yes"/>
			<point x="136" y="699"/>
			<point x="191" y="770"/>
			<point x="280" y="770" type="curve" smooth="yes"/>
			<point x="411" y="770"/>
			<point x="506" y="576"/>
			<point x="506" y="317" type="curve" smooth="yes"/>
			<point x="506" y="136"/>
			<point x="475" y="34"/>
		</contour>
		<contour>
			<point x="65" y="400" type="line"/>
			<point x="519" y="384" type="line"/>
			<point x="551" y="449" type="line"/>
			<point x="65" y="427" type="line"/>
		</contour>
	</outline>
</glyph>
<glyph name="kappa" format="2">
	<advance width="712"/>
	<unicode hex="03BA"/>
	<outline>
		<contour>
			<point x="400" y="557" type="curve"/>
			<point x="396" y="535" type="line"/>
			<point x="486" y="519"/>
			<point x="473" y="445"/>
			<point x="404" y="395" type="curve" smooth="yes"/>
			<point x="231" y="270" type="line"/>
			<point x="201" y="197" type="line"/>
			<point x="459" y="388" type="line" smooth="yes"/>
			<point x="526" y="438"/>
			<point x="597" y="490"/>
			<point x="670" y="537" type="curve"/>
			<point x="666" y="557" type="line"/>
			<point x="617" y="552"/>
			<point x="574" y="550"/>
			<point x="542" y="550" type="curve" smooth="yes"/>
			<point x="510" y="550"/>
			<point x="461" y="552"/>
		</contour>
		<contour>
			<point x="425" y="373" type="curve"/>
			<point x="352" y="324" type="line"/>
			<point x="474" y="132"/>
			<point x="510" y="70"/>
			<point x="523" y="-5" type="curve"/>
			<point x="566" y="0"/>
			<point x="624" y="0"/>
			<point x="667" y="-5" type="curve"/>
			<point x="676" y="20" type="line"/>
			<point x="614" y="72"/>
			<point x="513" y="213"/>
		</contour>
		<contour>
			<point x="50" y="21" type="curve"/>
			<point x="54" y="-7" type="line"/>
			<point x="115" y="-2"/>
			<point x="165" y="0"/>
			<point x="197" y="0" type="curve" smooth="yes"/>
			<point x="229" y="0"/>
			<point x="289" y="-2"/>
			<point x="338" y="-7" type="curve"/>
			<point x="342" y="21" type="line"/>
			<point x="262" y="48"/>
			<point x="241" y="86"/>
			<point x="241" y="162" type="curve" smooth="yes"/>
			<point x="241" y="330" type="line" smooth="yes"/>
			<point x="241" y="396"/>
			<point x="237" y="456"/>
			<point x="252" y="554" type="curve"/>
			<point x="224" y="561" type="line"/>
			<point x="186" y="512"/>
			<point x="132" y="475"/>
			<point x="54" y="451" type="curve"/>
			<point x="54" y="427" type="line"/>
			<point x="129" y="421"/>
			<point x="151" y="362"/>
			<point x="151" y="293" type="curve" smooth="yes"/>
			<point x="151" y="162" type="line" smooth="yes"/>
			<point x="151" y="86"/>
			<point x="130" y="47"/>
		</contour>
	</outline>
</glyph>
<glyph name="lambda" format="2">
	<advance width="632"/>
	<unicode hex="03BB"/>
	<outline>
		<contour>
			<point x="31" y="664" type="curve"/>
			<point x="46" y="651" type="line"/>
			<point x="113" y="733"/>
			<point x="215" y="719"/>
			<point x="286" y="576" type="curve" smooth="yes"/>
			<point x="495" y="158" type="line" smooth="yes"/>
			<point x="530" y="87"/>
			<point x="498" y="37"/>
			<point x="418" y="23" type="curve"/>
			<point x="422" y="-5" type="line"/>
			<point x="473" y="0"/>
			<point x="509" y="2"/>
			<point x="541" y="2" type="curve" smooth="yes"/>
			<point x="573" y="2"/>
			<point x="629" y="0"/>
			<point x="678" y="-5" type="curve"/>
			<point x="682" y="23" type="line"/>
			<point x="602" y="60"/>
			<point x="572" y="118"/>
			<point x="544" y="174" type="curve" smooth="yes"/>
			<point x="317" y="624" type="line" smooth="yes"/>
			<point x="246" y="765"/>
			<point x="215" y="810"/>
			<point x="153" y="810" type="curve" smooth="yes"/>
			<point x="91" y="810"/>
			<point x="53" y="736"/>
		</contour>
		<contour>
			<point x="233" y="161" type="curve" smooth="yes"/>
			<point x="373" y="450" type="line"/>
			<point x="316" y="553" type="line"/>
			<point x="126" y="173" type="line" smooth="yes"/>
			<point x="92" y="105"/>
			<point x="55" y="59"/>
			<point x="-25" y="23" type="curve"/>
			<point x="-21" y="-5" type="line"/>
			<point x="40" y="0"/>
			<point x="96" y="2"/>
			<point x="128" y="2" type="curve" smooth="yes"/>
			<point x="160" y="2"/>
			<point x="236" y="0"/>
			<point x="295" y="-5" type="curve"/>
			<point x="299" y="23" type="line"/>
			<point x="209" y="40"/>
			<point x="195" y="83"/>
		</contour>
	</outline>
</glyph>
<glyph name="uni03BC" format="2">
	<advance width="722"/>
	<unicode hex="03BC"/>
	<outline>
		<contour>
			<point x="321" y="-15" type="curve" smooth="yes"/>
			<point x="424" y="-15"/>
			<point x="491" y="59"/>
			<point x="544" y="177" type="curve"/>
			<point x="533" y="197" type="line"/>
			<point x="488" y="131"/>
			<point x="435" y="62"/>
			<point x="347" y="62" type="curve" smooth="yes"/>
			<point x="255" y="62"/>
			<point x="204" y="123"/>
			<point x="204" y="231" type="curve" smooth="yes"/>
			<point x="204" y="301" type="line" smooth="yes"/>
			<point x="204" y="407"/>
			<point x="204" y="477"/>
			<point x="215" y="562" type="curve"/>
			<point x="198" y="569" type="line"/>
			<point x="153" y="523"/>
			<point x="107" y="493"/>
			<point x="27" y="472" type="curve"/>
			<point x="27" y="452" type="line"/>
			<point x="92" y="446"/>
			<point x="114" y="406"/>
			<point x="114" y="297" type="curve" smooth="yes"/>
			<point x="114" y="227" type="line"/>
			<point x="167" y="174" type="line"/>
			<point x="167" y="60"/>
			<point x="220" y="-15"/>
		</contour>
		<contour>
			<point x="558" y="-9" type="curve"/>
			<point x="702" y="35" type="line"/>
			<point x="702" y="58" type="line"/>
			<point x="642" y="84"/>
			<point x="609" y="144"/>
			<point x="609" y="253" type="curve" smooth="yes"/>
			<point x="609" y="301" type="line" smooth="yes"/>
			<point x="609" y="407"/>
			<point x="609" y="477"/>
			<point x="620" y="562" type="curve"/>
			<point x="603" y="569" type="line"/>
			<point x="558" y="523"/>
			<point x="517" y="493"/>
			<point x="427" y="472" type="curve"/>
			<point x="427" y="452" type="line"/>
			<point x="502" y="446"/>
			<point x="524" y="406"/>
			<point x="524" y="297" type="curve" smooth="yes"/>
			<point x="524" y="164" type="line" smooth="yes"/>
			<point x="524" y="103"/>
			<point x="535" y="20"/>
		</contour>
		<contour>
			<point x="10" y="-226" type="curve"/>
			<point x="14" y="-254" type="line"/>
			<point x="65" y="-252"/>
			<point x="121" y="-250"/>
			<point x="153" y="-250" type="curve" smooth="yes"/>
			<point x="185" y="-250"/>
			<point x="261" y="-252"/>
			<point x="340" y="-257" type="curve"/>
			<point x="344" y="-229" type="line"/>
			<point x="214" y="-200"/>
			<point x="204" y="-164"/>
			<point x="204" y="-88" type="curve" smooth="yes"/>
			<point x="204" y="288" type="line"/>
			<point x="114" y="258" type="line"/>
			<point x="114" y="-88" type="line" smooth="yes"/>
			<point x="114" y="-164"/>
			<point x="80" y="-203"/>
		</contour>
	</outline>
</glyph>
<glyph name="xi" format="2">
	<advance width="475"/>
	<unicode hex="03BE"/>
	<outline>
		<contour>
			<point x="24" y="805" type="curve"/>
			<point x="15" y="791" type="line"/>
			<point x="31" y="717" type="line"/>
			<point x="447" y="763" type="line"/>
			<point x="438" y="791" type="line"/>
			<point x="307" y="791"/>
			<point x="137" y="787"/>
		</contour>
		<contour>
			<point x="35" y="242" type="curve"/>
			<point x="140" y="282" type="line"/>
			<point x="140" y="344"/>
			<point x="186" y="412"/>
			<point x="235" y="412" type="curve"/>
			<point x="358" y="387" type="line"/>
			<point x="366" y="392" type="line"/>
			<point x="390" y="464" type="line"/>
			<point x="383" y="469" type="line"/>
			<point x="235" y="444" type="line"/>
			<point x="190" y="444"/>
			<point x="157" y="479"/>
			<point x="157" y="535" type="curve"/>
			<point x="55" y="545" type="line"/>
			<point x="55" y="484"/>
			<point x="106" y="446"/>
			<point x="196" y="427" type="curve"/>
			<point x="106" y="396"/>
			<point x="35" y="336"/>
		</contour>
		<contour>
			<point x="55" y="545" type="curve"/>
			<point x="157" y="535" type="line"/>
			<point x="157" y="662"/>
			<point x="318" y="730"/>
			<point x="447" y="763" type="curve"/>
			<point x="438" y="778" type="line"/>
			<point x="279" y="740"/>
			<point x="55" y="676"/>
		</contour>
		<contour>
			<point x="140" y="282" type="curve"/>
			<point x="35" y="242" type="line"/>
			<point x="35" y="29"/>
			<point x="372" y="37"/>
			<point x="372" y="-85" type="curve" smooth="yes"/>
			<point x="372" y="-124"/>
			<point x="321" y="-158"/>
			<point x="244" y="-158" type="curve" smooth="yes"/>
			<point x="211" y="-158"/>
			<point x="167" y="-156"/>
			<point x="124" y="-140" type="curve"/>
			<point x="117" y="-163" type="line"/>
			<point x="160" y="-185"/>
			<point x="221" y="-193"/>
			<point x="264" y="-193" type="curve" smooth="yes"/>
			<point x="365" y="-193"/>
			<point x="450" y="-149"/>
			<point x="450" y="-53" type="curve" smooth="yes"/>
			<point x="450" y="129"/>
			<point x="140" y="113"/>
		</contour>
	</outline>
</glyph>
<glyph name="pi" format="2">
	<advance width="775"/>
	<unicode hex="03C0"/>
	<anchor x="0" y="0" name="bottom"/>
	<anchor x="0" y="0" name="top"/>
	<outline>
		<contour>
			<point x="450" y="21" type="curve"/>
			<point x="454" y="-7" type="line"/>
			<point x="505" y="-2"/>
			<point x="555" y="0"/>
			<point x="587" y="0" type="curve" smooth="yes"/>
			<point x="619" y="0"/>
			<point x="679" y="-2"/>
			<point x="728" y="-7" type="curve"/>
			<point x="732" y="21" type="line"/>
			<point x="652" y="48"/>
			<point x="631" y="86"/>
			<point x="631" y="162" type="curve" smooth="yes"/>
			<point x="631" y="540" type="line"/>
			<point x="541" y="540" type="line"/>
			<point x="541" y="162" type="line" smooth="yes"/>
			<point x="541" y="86"/>
			<point x="520" y="47"/>
		</contour>
		<contour>
			<point x="50" y="21" type="curve"/>
			<point x="54" y="-7" type="line"/>
			<point x="115" y="-2"/>
			<point x="165" y="0"/>
			<point x="197" y="0" type="curve" smooth="yes"/>
			<point x="229" y="0"/>
			<point x="289" y="-2"/>
			<point x="338" y="-7" type="curve"/>
			<point x="342" y="21" type="line"/>
			<point x="262" y="48"/>
			<point x="241" y="86"/>
			<point x="241" y="162" type="curve" smooth="yes"/>
			<point x="241" y="530" type="line"/>
			<point x="151" y="530" type="line"/>
			<point x="151" y="162" type="line" smooth="yes"/>
			<point x="151" y="86"/>
			<point x="130" y="47"/>
		</contour>
		<contour>
			<point x="15" y="500" type="line"/>
			<point x="729" y="484" type="line"/>
			<point x="770" y="540" type="line"/>
			<point x="761" y="559" type="line"/>
			<point x="15" y="547" type="line"/>
		</contour>
	</outline>
</glyph>
<glyph name="rho" format="2">
	<advance width="639"/>
	<unicode hex="03C1"/>
	<outline>
		<contour>
			<point x="348" y="-15" type="curve" smooth="yes"/>
			<point x="485" y="-15"/>
			<point x="614" y="115"/>
			<point x="614" y="276" type="curve" smooth="yes"/>
			<point x="614" y="443"/>
			<point x="485" y="565"/>
			<point x="328" y="565" type="curve" smooth="yes"/>
			<point x="170" y="565"/>
			<point x="54" y="436"/>
			<point x="54" y="276" type="curve"/>
			<point x="111" y="215" type="line"/>
			<point x="101" y="59"/>
			<point x="243" y="-15"/>
		</contour>
		<contour>
			<point x="415" y="41" type="curve" smooth="yes"/>
			<point x="330" y="11"/>
			<point x="218" y="79"/>
			<point x="166" y="215" type="curve" smooth="yes"/>
			<point x="115" y="350"/>
			<point x="152" y="477"/>
			<point x="239" y="508" type="curve" smooth="yes"/>
			<point x="325" y="537"/>
			<point x="438" y="471"/>
			<point x="489" y="337" type="curve" smooth="yes"/>
			<point x="541" y="200"/>
			<point x="503" y="71"/>
		</contour>
		<contour>
			<point x="-50" y="-226" type="curve"/>
			<point x="-46" y="-254" type="line"/>
			<point x="5" y="-252"/>
			<point x="61" y="-250"/>
			<point x="93" y="-250" type="curve" smooth="yes"/>
			<point x="125" y="-250"/>
			<point x="201" y="-252"/>
			<point x="280" y="-257" type="curve"/>
			<point x="284" y="-229" type="line"/>
			<point x="154" y="-200"/>
			<point x="144" y="-164"/>
			<point x="144" y="-88" type="curve" smooth="yes"/>
			<point x="144" y="306" type="line"/>
			<point x="54" y="276" type="line"/>
			<point x="54" y="-88" type="line" smooth="yes"/>
			<point x="54" y="-164"/>
			<point x="20" y="-203"/>
		</contour>
	</outline>
</glyph>
<glyph name="uni03C2" format="2">
	<advance width="542"/>
	<unicode hex="03C2"/>
	<outline>
		<contour>
			<point x="398" y="-85" type="curve" smooth="yes"/>
			<point x="398" y="-124"/>
			<point x="347" y="-158"/>
			<point x="270" y="-158" type="curve" smooth="yes"/>
			<point x="237" y="-158"/>
			<point x="193" y="-156"/>
			<point x="150" y="-140" type="curve"/>
			<point x="143" y="-163" type="line"/>
			<point x="186" y="-185"/>
			<point x="247" y="-193"/>
			<point x="290" y="-193" type="curve" smooth="yes"/>
			<point x="391" y="-193"/>
			<point x="476" y="-149"/>
			<point x="476" y="-53" type="curve" smooth="yes"/>
			<point x="476" y="140"/>
			<point x="118" y="113"/>
			<point x="118" y="366" type="curve" smooth="yes"/>
			<point x="118" y="451"/>
			<point x="162" y="524"/>
			<point x="266" y="524" type="curve" smooth="yes"/>
			<point x="342" y="524"/>
			<point x="425" y="464"/>
			<point x="468" y="320" type="curve"/>
			<point x="490" y="322" type="line"/>
			<point x="492" y="398"/>
			<point x="502" y="467"/>
			<point x="517" y="530" type="curve"/>
			<point x="504" y="540" type="line"/>
			<point x="426" y="510"/>
			<point x="385" y="565"/>
			<point x="284" y="565" type="curve" smooth="yes"/>
			<point x="129" y="565"/>
			<point x="25" y="456"/>
			<point x="25" y="306" type="curve" smooth="yes"/>
			<point x="25" y="23"/>
			<point x="398" y="39"/>
		</contour>
	</outline>
</glyph>
<glyph name="sigma" format="2">
	<advance width="674"/>
	<unicode hex="03C3"/>
	<outline>
		<contour>
			<point x="311" y="-15" type="curve" smooth="yes"/>
			<point x="468" y="-15"/>
			<point x="597" y="115"/>
			<point x="597" y="276" type="curve" smooth="yes"/>
			<point x="597" y="443"/>
			<point x="468" y="565"/>
			<point x="311" y="565" type="curve" smooth="yes"/>
			<point x="153" y="565"/>
			<point x="25" y="436"/>
			<point x="25" y="276" type="curve" smooth="yes"/>
			<point x="25" y="108"/>
			<point x="153" y="-15"/>
		</contour>
		<contour>
			<point x="398" y="41" type="curve" smooth="yes"/>
			<point x="313" y="11"/>
			<point x="201" y="79"/>
			<point x="149" y="215" type="curve" smooth="yes"/>
			<point x="98" y="350"/>
			<point x="135" y="477"/>
			<point x="222" y="508" type="curve" smooth="yes"/>
			<point x="308" y="537"/>
			<point x="421" y="471"/>
			<point x="472" y="337" type="curve" smooth="yes"/>
			<point x="524" y="200"/>
			<point x="486" y="71"/>
		</contour>
		<contour>
			<point x="633" y="491" type="line"/>
			<point x="674" y="565" type="line"/>
			<point x="665" y="579" type="line"/>
			<point x="552" y="561"/>
			<point x="442" y="565"/>
			<point x="311" y="565" type="curve"/>
			<point x="322" y="547" type="line"/>
		</contour>
	</outline>
</glyph>
<glyph name="tau" format="2">
	<advance width="537"/>
	<unicode hex="03C4"/>
	<outline>
		<contour>
			<point x="319" y="-15" type="curve" smooth="yes"/>
			<point x="397" y="-15"/>
			<point x="484" y="48"/>
			<point x="532" y="166" type="curve"/>
			<point x="510" y="179" type="line"/>
			<point x="471" y="113"/>
			<point x="425" y="62"/>
			<point x="365" y="62" type="curve" smooth="yes"/>
			<point x="291" y="62"/>
			<point x="257" y="115"/>
			<point x="257" y="233" type="curve" smooth="yes"/>
			<point x="257" y="378"/>
			<point x="259" y="443"/>
			<point x="262" y="492" type="curve"/>
			<point x="435" y="480" type="line"/>
			<point x="476" y="536" type="line"/>
			<point x="467" y="555" type="line"/>
			<point x="10" y="547" type="line"/>
			<point x="10" y="502" type="line"/>
			<point x="167" y="496" type="line"/>
			<point x="167" y="204" type="line" smooth="yes"/>
			<point x="167" y="48"/>
			<point x="220" y="-15"/>
		</contour>
	</outline>
</glyph>
<glyph name="upsilon" format="2">
	<advance width="671"/>
	<unicode hex="03C5"/>
	<outline>
		<contour>
			<point x="380" y="-15" type="curve" smooth="yes"/>
			<point x="530" y="-15"/>
			<point x="646" y="93"/>
			<point x="646" y="261" type="curve" smooth="yes"/>
			<point x="646" y="381"/>
			<point x="575" y="497"/>
			<point x="464" y="565" type="curve"/>
			<point x="445" y="550" type="line"/>
			<point x="565" y="446"/>
			<point x="580" y="27"/>
			<point x="375" y="27" type="curve" smooth="yes"/>
			<point x="273" y="27"/>
			<point x="227" y="93"/>
			<point x="227" y="201" type="curve" smooth="yes"/>
			<point x="227" y="301" type="line" smooth="yes"/>
			<point x="227" y="407"/>
			<point x="227" y="477"/>
			<point x="238" y="562" type="curve"/>
			<point x="221" y="569" type="line"/>
			<point x="176" y="523"/>
			<point x="130" y="493"/>
			<point x="50" y="472" type="curve"/>
			<point x="50" y="452" type="line"/>
			<point x="115" y="446"/>
			<point x="137" y="406"/>
			<point x="137" y="297" type="curve" smooth="yes"/>
			<point x="137" y="227" type="line" smooth="yes"/>
			<point x="137" y="71"/>
			<point x="224" y="-15"/>
		</contour>
	</outline>
</glyph>
<glyph name="phi" format="2">
	<advance width="764"/>
	<unicode hex="03C6"/>
	<outline>
		<contour>
			<point x="235" y="-229" type="curve"/>
			<point x="239" y="-257" type="line"/>
			<point x="300" y="-252"/>
			<point x="350" y="-250"/>
			<point x="382" y="-250" type="curve" smooth="yes"/>
			<point x="414" y="-250"/>
			<point x="474" y="-252"/>
			<point x="523" y="-257" type="curve"/>
			<point x="527" y="-229" type="line"/>
			<point x="447" y="-202"/>
			<point x="426" y="-164"/>
			<point x="426" y="-88" type="curve" smooth="yes"/>
			<point x="426" y="393" type="line"/>
			<point x="336" y="383" type="line" smooth="yes"/>
			<point x="336" y="-88" type="line" smooth="yes"/>
			<point x="336" y="-164"/>
			<point x="315" y="-203"/>
		</contour>
		<contour>
			<point x="366" y="-15" type="curve" smooth="yes"/>
			<point x="575" y="-15"/>
			<point x="739" y="86"/>
			<point x="739" y="301" type="curve"/>
			<point x="619" y="301" type="line"/>
			<point x="619" y="135"/>
			<point x="560" y="27"/>
			<point x="366" y="27" type="curve" smooth="yes"/>
			<point x="76" y="27"/>
			<point x="101" y="426"/>
			<point x="221" y="550" type="curve"/>
			<point x="202" y="565" type="line"/>
			<point x="96" y="497"/>
			<point x="25" y="381"/>
			<point x="25" y="261" type="curve" smooth="yes"/>
			<point x="25" y="93"/>
			<point x="176" y="-15"/>
		</contour>
		<contour>
			<point x="336" y="383" type="curve"/>
			<point x="426" y="393" type="line"/>
			<point x="426" y="464"/>
			<point x="443" y="523"/>
			<point x="495" y="523" type="curve" smooth="yes"/>
			<point x="574" y="523"/>
			<point x="619" y="419"/>
			<point x="619" y="301" type="curve"/>
			<point x="739" y="301" type="line"/>
			<point x="739" y="458"/>
			<point x="612" y="565"/>
			<point x="495" y="565" type="curve" smooth="yes"/>
			<point x="417" y="565"/>
			<point x="336" y="513"/>
		</contour>
	</outline>
</glyph>
<glyph name="psi" format="2">
	<advance width="821"/>
	<unicode hex="03C8"/>
	<outline>
		<contour>
			<point x="310" y="-229" type="curve"/>
			<point x="314" y="-257" type="line"/>
			<point x="375" y="-252"/>
			<point x="425" y="-250"/>
			<point x="457" y="-250" type="curve" smooth="yes"/>
			<point x="489" y="-250"/>
			<point x="549" y="-252"/>
			<point x="598" y="-257" type="curve"/>
			<point x="602" y="-229" type="line"/>
			<point x="522" y="-202"/>
			<point x="501" y="-164"/>
			<point x="501" y="-88" type="curve" smooth="yes"/>
			<point x="501" y="583" type="line" smooth="yes"/>
			<point x="501" y="659"/>
			<point x="511" y="740"/>
			<point x="542" y="817" type="curve"/>
			<point x="524" y="832" type="line"/>
			<point x="473" y="773"/>
			<point x="417" y="737"/>
			<point x="314" y="720" type="curve"/>
			<point x="314" y="693" type="line"/>
			<point x="388" y="693"/>
			<point x="411" y="629"/>
			<point x="411" y="553" type="curve" smooth="yes"/>
			<point x="411" y="-88" type="line" smooth="yes"/>
			<point x="411" y="-164"/>
			<point x="390" y="-203"/>
		</contour>
		<contour>
			<point x="460" y="-15" type="curve" smooth="yes"/>
			<point x="650" y="-15"/>
			<point x="796" y="101"/>
			<point x="796" y="269" type="curve" smooth="yes"/>
			<point x="796" y="389"/>
			<point x="725" y="497"/>
			<point x="624" y="565" type="curve"/>
			<point x="605" y="550" type="line"/>
			<point x="710" y="426"/>
			<point x="755" y="27"/>
			<point x="460" y="27" type="curve" smooth="yes"/>
			<point x="288" y="27"/>
			<point x="227" y="133"/>
			<point x="227" y="241" type="curve" smooth="yes"/>
			<point x="227" y="301" type="line" smooth="yes"/>
			<point x="227" y="407"/>
			<point x="227" y="477"/>
			<point x="238" y="562" type="curve"/>
			<point x="221" y="569" type="line"/>
			<point x="176" y="523"/>
			<point x="130" y="493"/>
			<point x="50" y="472" type="curve"/>
			<point x="50" y="452" type="line"/>
			<point x="115" y="446"/>
			<point x="137" y="406"/>
			<point x="137" y="297" type="curve" smooth="yes"/>
			<point x="137" y="267" type="line" smooth="yes"/>
			<point x="137" y="111"/>
			<point x="224" y="-15"/>
		</contour>
	</outline>
</glyph>
<glyph name="omega" format="2">
	<advance width="903"/>
	<unicode hex="03C9"/>
	<outline>
		<contour>
			<point x="632" y="-15" type="curve" smooth="yes"/>
			<point x="762" y="-15"/>
			<point x="878" y="83"/>
			<point x="878" y="251" type="curve" smooth="yes"/>
			<point x="878" y="371"/>
			<point x="802" y="497"/>
			<point x="691" y="565" type="curve"/>
			<point x="672" y="550" type="line"/>
			<point x="783" y="436"/>
			<point x="819" y="27"/>
			<point x="629" y="27" type="curve" smooth="yes"/>
			<point x="557" y="27"/>
			<point x="499" y="88"/>
			<point x="499" y="201" type="curve" smooth="yes"/>
			<point x="499" y="241" type="line" smooth="yes"/>
			<point x="499" y="337"/>
			<point x="499" y="407"/>
			<point x="510" y="492" type="curve"/>
			<point x="493" y="499" type="line"/>
			<point x="448" y="453"/>
			<point x="402" y="423"/>
			<point x="322" y="402" type="curve"/>
			<point x="322" y="382" type="line"/>
			<point x="387" y="376"/>
			<point x="409" y="336"/>
			<point x="409" y="237" type="curve" smooth="yes"/>
			<point x="409" y="227" type="line" smooth="yes"/>
			<point x="450" y="227" type="line"/>
			<point x="450" y="65"/>
			<point x="516" y="-15"/>
		</contour>
		<contour>
			<point x="455" y="227" type="curve"/>
			<point x="409" y="227" type="line"/>
			<point x="409" y="84"/>
			<point x="348" y="27"/>
			<point x="271" y="27" type="curve" smooth="yes"/>
			<point x="91" y="27"/>
			<point x="121" y="436"/>
			<point x="231" y="550" type="curve"/>
			<point x="212" y="565" type="line"/>
			<point x="101" y="497"/>
			<point x="25" y="371"/>
			<point x="25" y="251" type="curve" smooth="yes"/>
			<point x="25" y="83"/>
			<point x="126" y="-15"/>
			<point x="266" y="-15" type="curve" smooth="yes"/>
			<point x="382" y="-15"/>
			<point x="455" y="65"/>
		</contour>
	</outline>
</glyph>
<glyph name="guilsinglright" format="2">
	<advance width="317"/>
	<unicode hex="203A"/>
	<outline>
		<contour>
			<point x="287" y="286" type="line"/>
			<point x="76" y="517" type="line"/>
			<point x="50" y="496" type="line"/>
			<point x="170" y="274" type="line"/>
			<point x="50" y="52" type="line"/>
			<point x="76" y="31" type="line"/>
			<point x="287" y="262" type="line"/>
		</contour>
	</outline>
</glyph>
<glyph name="lessequal" format="2">
	<advance width="599"/>
	<unicode hex="2264"/>
	<outline>
		<contour>
			<point x="82" y="443" type="line"/>
			<point x="82" y="419" type="line"/>
			<point x="503" y="226" type="line"/>
			<point x="519" y="259" type="line"/>
			<point x="238" y="431" type="line"/>
			<point x="519" y="603" type="line"/>
			<point x="503" y="636" type="line"/>
		</contour>
		<contour>
			<point x="518" y="126" type="line"/>
			<point x="519" y="186" type="line"/>
			<point x="80" y="189" type="line"/>
			<point x="80" y="129" type="line"/>
		</contour>
	</outline>
</glyph>
<glyph name="Alphatonos.ss01" format="2">
	<advance width="884"/>
	<anchor x="-107" y="-70" name="top"/>
	<outline>
		<contour>
			<point x="211" y="669" type="curve"/>
			<point x="225" y="641" type="line"/>
			<point x="456" y="753"/>
			<point x="611" y="678"/>
			<point x="643" y="456" type="curve" smooth="yes"/>
			<point x="684" y="174"/>
			<point x="694" y="94"/>
			<point x="701" y="0" type="curve"/>
			<point x="861" y="0" type="line"/>
			<point x="874" y="26" type="line"/>
			<point x="809" y="76"/>
			<point x="754" y="215"/>
			<point x="735" y="355" type="curve" smooth="yes"/>
			<point x="708" y="557"/>
			<point x="742" y="627"/>
			<point x="833" y="685" type="curve"/>
			<point x="815" y="707" type="line"/>
			<point x="758" y="691"/>
			<point x="681" y="662"/>
			<point x="601" y="620" type="curve"/>
			<point x="713" y="557" type="line"/>
			<point x="673" y="690"/>
			<point x="591" y="753"/>
			<point x="456" y="753" type="curve" smooth="yes"/>
			<point x="355" y="753"/>
			<point x="281" y="722"/>
		</contour>
		<contour>
			<point x="623" y="588" type="curve"/>
			<point x="601" y="620" type="line"/>
			<point x="504" y="568"/>
			<point x="412" y="501"/>
			<point x="344" y="435" type="curve" smooth="yes"/>
			<point x="153" y="243"/>
			<point x="158" y="58"/>
			<point x="224" y="9" type="curve" smooth="yes"/>
			<point x="313" y="-55"/>
			<point x="599" y="12"/>
			<point x="678" y="346" type="curve"/>
			<point x="643" y="456" type="line"/>
			<point x="657" y="350"/>
			<point x="617" y="275"/>
			<point x="565" y="207" type="curve" smooth="yes"/>
			<point x="491" y="111"/>
			<point x="377" y="50"/>
			<point x="313" y="93" type="curve" smooth="yes"/>
			<point x="251" y="134"/>
			<point x="291" y="309"/>
			<point x="385" y="408" type="curve" smooth="yes"/>
			<point x="442" y="469"/>
			<point x="528" y="533"/>
		</contour>
		<contour>
			<point x="0" y="547" type="line"/>
			<point x="20" y="533" type="line"/>
			<point x="195" y="737" type="line"/>
			<point x="188" y="750" type="line"/>
			<point x="80" y="750" type="line"/>
		</contour>
	</outline>
</glyph>
<glyph name="Epsilontonos.ss01" format="2">
	<advance width="846"/>
	<outline>
		<contour>
			<point x="490" y="-15" type="curve" smooth="yes"/>
			<point x="678" y="-15"/>
			<point x="788" y="106"/>
			<point x="826" y="293" type="curve"/>
			<point x="802" y="297" type="line"/>
			<point x="749" y="147"/>
			<point x="676" y="73"/>
			<point x="524" y="73" type="curve" smooth="yes"/>
			<point x="353" y="73"/>
			<point x="217" y="220"/>
			<point x="217" y="410" type="curve" smooth="yes"/>
			<point x="217" y="587"/>
			<point x="327" y="719"/>
			<point x="471" y="719" type="curve" smooth="yes"/>
			<point x="597" y="719"/>
			<point x="692" y="647"/>
			<point x="738" y="481" type="curve"/>
			<point x="763" y="484" type="line"/>
			<point x="760" y="565"/>
			<point x="776" y="655"/>
			<point x="795" y="730" type="curve"/>
			<point x="781" y="740" type="line"/>
			<point x="707" y="698"/>
			<point x="613" y="760"/>
			<point x="490" y="760" type="curve" smooth="yes"/>
			<point x="288" y="760"/>
			<point x="113" y="586"/>
			<point x="113" y="373" type="curve" smooth="yes"/>
			<point x="113" y="156"/>
			<point x="279" y="-15"/>
		</contour>
		<contour>
			<point x="608" y="221" type="curve"/>
			<point x="633" y="230" type="line"/>
			<point x="610" y="331"/>
			<point x="599" y="414"/>
			<point x="586" y="529" type="curve"/>
			<point x="561" y="529" type="line"/>
			<point x="550" y="434"/>
			<point x="493" y="408"/>
			<point x="421" y="408" type="curve" smooth="yes"/>
			<point x="194" y="408" type="line"/>
			<point x="194" y="368" type="line"/>
			<point x="431" y="368" type="line" smooth="yes"/>
			<point x="510" y="368"/>
			<point x="561" y="339"/>
		</contour>
		<contour>
			<point x="0" y="547" type="line"/>
			<point x="20" y="533" type="line"/>
			<point x="195" y="737" type="line"/>
			<point x="188" y="750" type="line"/>
			<point x="80" y="750" type="line"/>
		</contour>
	</outline>
</glyph>
<glyph name="Sigma.ss02" format="2">
	<advance width="721"/>
	<outline>
		<contour>
			<point x="293" y="382" type="line"/>
			<point x="412" y="382" type="line"/>
			<point x="162" y="715" type="line"/>
			<point x="85" y="708" type="line"/>
			<point x="346" y="703" type="line" smooth="yes"/>
			<point x="477" y="700"/>
			<point x="561" y="652"/>
			<point x="597" y="457" type="curve"/>
			<point x="623" y="460" type="line"/>
			<point x="614" y="568"/>
			<point x="620" y="676"/>
			<point x="646" y="752" type="curve"/>
			<point x="625" y="764" type="line"/>
			<point x="560" y="745"/>
			<point x="476" y="745"/>
			<point x="299" y="745" type="curve" smooth="yes"/>
			<point x="44" y="745" type="line"/>
			<point x="35" y="722" type="line"/>
		</contour>
		<contour>
			<point x="412" y="382" type="line"/>
			<point x="293" y="382" type="line"/>
			<point x="30" y="22" type="line"/>
			<point x="41" y="0" type="line"/>
			<point x="685" y="0" type="line"/>
			<point x="701" y="17" type="line"/>
			<point x="684" y="81"/>
			<point x="672" y="170"/>
			<point x="670" y="288" type="curve"/>
			<point x="644" y="289" type="line"/>
			<point x="634" y="81"/>
			<point x="519" y="53"/>
			<point x="357" y="47" type="curve" smooth="yes"/>
			<point x="131" y="38" type="line"/>
			<point x="156" y="31" type="line"/>
		</contour>
	</outline>
</glyph>
<glyph name="backslash.case" format="2">
	<advance width="395"/>
	<outline>
		<contour>
			<point x="293" y="0" type="line"/>
			<point x="380" y="0" type="line"/>
			<point x="101" y="745" type="line"/>
			<point x="15" y="745" type="line"/>
		</contour>
	</outline>
</glyph>
<glyph name="beta.alt" format="2">
	<advance width="638"/>
	<outline>
		<contour>
			<point x="280" y="-257" type="curve"/>
			<point x="284" y="-229" type="line"/>
			<point x="154" y="-200"/>
			<point x="144" y="-164"/>
			<point x="144" y="-88" type="curve" smooth="yes"/>
			<point x="144" y="72" type="line"/>
			<point x="196" y="7"/>
			<point x="276" y="-15"/>
			<point x="350" y="-15" type="curve" smooth="yes"/>
			<point x="495" y="-15"/>
			<point x="603" y="80"/>
			<point x="603" y="218" type="curve" smooth="yes"/>
			<point x="603" y="342"/>
			<point x="496" y="433"/>
			<point x="406" y="444" type="curve"/>
			<point x="496" y="473"/>
			<point x="544" y="534"/>
			<point x="544" y="605" type="curve" smooth="yes"/>
			<point x="544" y="733"/>
			<point x="435" y="819"/>
			<point x="320" y="819" type="curve" smooth="yes"/>
			<point x="182" y="819"/>
			<point x="54" y="758"/>
			<point x="54" y="508" type="curve" smooth="yes"/>
			<point x="54" y="-88" type="line" smooth="yes"/>
			<point x="54" y="-164"/>
			<point x="20" y="-203"/>
			<point x="-50" y="-226" type="curve"/>
			<point x="-46" y="-254" type="line"/>
			<point x="5" y="-252"/>
			<point x="61" y="-250"/>
			<point x="93" y="-250" type="curve" smooth="yes"/>
			<point x="125" y="-250"/>
			<point x="201" y="-252"/>
		</contour>
		<contour>
			<point x="144" y="298" type="curve" smooth="yes"/>
			<point x="144" y="536" type="line" smooth="yes"/>
			<point x="144" y="727"/>
			<point x="190" y="770"/>
			<point x="280" y="770" type="curve" smooth="yes"/>
			<point x="368" y="770"/>
			<point x="442" y="693"/>
			<point x="442" y="585" type="curve" smooth="yes"/>
			<point x="442" y="529"/>
			<point x="419" y="454"/>
			<point x="364" y="454" type="curve"/>
			<point x="236" y="479" type="line"/>
			<point x="229" y="474" type="line"/>
			<point x="253" y="402" type="line"/>
			<point x="261" y="397" type="line"/>
			<point x="364" y="422" type="line"/>
			<point x="439" y="402"/>
			<point x="495" y="327"/>
			<point x="495" y="230" type="curve" smooth="yes"/>
			<point x="495" y="140"/>
			<point x="443" y="34"/>
			<point x="330" y="34" type="curve" smooth="yes"/>
			<point x="235" y="34"/>
			<point x="144" y="104"/>
		</contour>
	</outline>
</glyph>
<glyph name="braceright.case" format="2">
	<advance width="377"/>
	<anchor x="92" y="568" name="_top"/>
	<anchor x="92" y="833" name="top"/>
	<outline>
		<contour>
			<point x="20" y="882" type="curve"/>
			<point x="20" y="847" type="line"/>
			<point x="118" y="847"/>
			<point x="172" y="781"/>
			<point x="156" y="678" type="curve" smooth="yes"/>
			<point x="136" y="556" type="line" smooth="yes"/>
			<point x="117" y="436"/>
			<point x="192" y="359"/>
			<point x="327" y="359" type="curve"/>
			<point x="327" y="388" type="line"/>
			<point x="258" y="388"/>
			<point x="222" y="445"/>
			<point x="236" y="532" type="curve" smooth="yes"/>
			<point x="256" y="658" type="line" smooth="yes"/>
			<point x="278" y="794"/>
			<point x="186" y="882"/>
		</contour>
		<contour>
			<point x="20" y="-101" type="curve"/>
			<point x="20" y="-136" type="line"/>
			<point x="186" y="-136"/>
			<point x="278" y="-48"/>
			<point x="256" y="88" type="curve" smooth="yes"/>
			<point x="236" y="214" type="line" smooth="yes"/>
			<point x="222" y="301"/>
			<point x="258" y="358"/>
			<point x="327" y="358" type="curve"/>
			<point x="327" y="387" type="line"/>
			<point x="192" y="387"/>
			<point x="117" y="310"/>
			<point x="136" y="190" type="curve" smooth="yes"/>
			<point x="156" y="68" type="line" smooth="yes"/>
			<point x="172" y="-35"/>
			<point x="118" y="-101"/>
		</contour>
	</outline>
</glyph>
<glyph name="bracketright.case" format="2">
	<advance width="368"/>
	<outline>
		<contour>
			<point x="268" y="825" type="line"/>
			<point x="10" y="825" type="line"/>
			<point x="10" y="791" type="line"/>
			<point x="178" y="771" type="line"/>
			<point x="178" y="-25" type="line"/>
			<point x="10" y="-45" type="line"/>
			<point x="10" y="-79" type="line"/>
			<point x="268" y="-79" type="line"/>
		</contour>
	</outline>
</glyph>
<glyph name="epsilontonos.ss01" format="2">
	<advance width="566"/>
	<anchor x="123" y="0" name="top"/>
	<outline>
		<contour>
			<point x="284" y="-15" type="curve" smooth="yes"/>
			<point x="387" y="-15"/>
			<point x="500" y="63"/>
			<point x="531" y="168" type="curve"/>
			<point x="513" y="179" type="line"/>
			<point x="426" y="43"/>
			<point x="259" y="48"/>
			<point x="173" y="163" type="curve" smooth="yes"/>
			<point x="90" y="274"/>
			<point x="105" y="455"/>
			<point x="194" y="505" type="curve" smooth="yes"/>
			<point x="283" y="555"/>
			<point x="410" y="512"/>
			<point x="468" y="320" type="curve"/>
			<point x="490" y="322" type="line"/>
			<point x="492" y="398"/>
			<point x="502" y="467"/>
			<point x="517" y="530" type="curve"/>
			<point x="504" y="540" type="line"/>
			<point x="426" y="510"/>
			<point x="385" y="565"/>
			<point x="284" y="565" type="curve" smooth="yes"/>
			<point x="129" y="565"/>
			<point x="25" y="436"/>
			<point x="25" y="276" type="curve" smooth="yes"/>
			<point x="25" y="108"/>
			<point x="129" y="-15"/>
		</contour>
		<contour>
			<point x="355" y="171" type="curve"/>
			<point x="380" y="180" type="line"/>
			<point x="357" y="251"/>
			<point x="343" y="324"/>
			<point x="333" y="409" type="curve"/>
			<point x="308" y="409" type="line"/>
			<point x="305" y="334"/>
			<point x="250" y="318"/>
			<point x="188" y="318" type="curve" smooth="yes"/>
			<point x="71" y="318" type="line"/>
			<point x="71" y="278" type="line"/>
			<point x="198" y="278" type="line" smooth="yes"/>
			<point x="267" y="278"/>
			<point x="318" y="259"/>
		</contour>
		<contour>
			<point x="231" y="617" type="line"/>
			<point x="251" y="603" type="line"/>
			<point x="426" y="807" type="line"/>
			<point x="419" y="820" type="line"/>
			<point x="311" y="820" type="line"/>
		</contour>
	</outline>
</glyph>
<glyph name="gamma.ss01" format="2">
	<advance width="617"/>
	<outline>
		<contour>
			<point x="-26" y="550" type="curve"/>
			<point x="-30" y="522" type="line"/>
			<point x="46" y="496"/>
			<point x="85" y="446"/>
			<point x="124" y="364" type="curve" smooth="yes"/>
			<point x="306" y="-15" type="line"/>
			<point x="327" y="-15" type="line"/>
			<point x="503" y="372" type="line" smooth="yes"/>
			<point x="536" y="445"/>
			<point x="567" y="485"/>
			<point x="647" y="522" type="curve"/>
			<point x="643" y="550" type="line"/>
			<point x="594" y="545"/>
			<point x="538" y="543"/>
			<point x="506" y="543" type="curve" smooth="yes"/>
			<point x="474" y="543"/>
			<point x="455" y="545"/>
			<point x="404" y="550" type="curve"/>
			<point x="400" y="522" type="line"/>
			<point x="480" y="508"/>
			<point x="496" y="453"/>
			<point x="466" y="388" type="curve" smooth="yes"/>
			<point x="326" y="82" type="line"/>
			<point x="355" y="114" type="line"/>
			<point x="227" y="382" type="line" smooth="yes"/>
			<point x="194" y="451"/>
			<point x="184" y="508"/>
			<point x="255" y="522" type="curve"/>
			<point x="251" y="550" type="line"/>
			<point x="192" y="545"/>
			<point x="155" y="543"/>
			<point x="123" y="543" type="curve" smooth="yes"/>
			<point x="91" y="543"/>
			<point x="35" y="545"/>
		</contour>
		<contour>
			<point x="366" y="-88" type="curve" smooth="yes"/>
			<point x="366" y="80" type="line"/>
			<point x="276" y="80" type="line"/>
			<point x="276" y="-88" type="line" smooth="yes"/>
			<point x="276" y="-164"/>
			<point x="255" y="-203"/>
			<point x="175" y="-229" type="curve"/>
			<point x="179" y="-257" type="line"/>
			<point x="240" y="-252"/>
			<point x="290" y="-250"/>
			<point x="322" y="-250" type="curve" smooth="yes"/>
			<point x="354" y="-250"/>
			<point x="414" y="-252"/>
			<point x="463" y="-257" type="curve"/>
			<point x="467" y="-229" type="line"/>
			<point x="387" y="-202"/>
			<point x="366" y="-164"/>
		</contour>
	</outline>
</glyph>
<glyph name="guilsinglright.case" format="2">
	<advance width="317"/>
	<outline>
		<contour>
			<point x="287" y="376" type="line"/>
			<point x="76" y="607" type="line"/>
			<point x="50" y="586" type="line"/>
			<point x="170" y="364" type="line"/>
			<point x="50" y="142" type="line"/>
			<point x="76" y="121" type="line"/>
			<point x="287" y="352" type="line"/>
		</contour>
	</outline>
</glyph>
<glyph name="parenright.case" format="2">
	<advance width="410"/>
	<anchor x="124" y="550" name="_top"/>
	<anchor x="124" y="815" name="top"/>
	<outline>
		<contour>
			<point x="215" y="368" type="curve" smooth="yes"/>
			<point x="215" y="196"/>
			<point x="158" y="17"/>
			<point x="50" y="-88" type="curve"/>
			<point x="74" y="-112" type="line"/>
			<point x="235" y="3"/>
			<point x="330" y="160"/>
			<point x="330" y="368" type="curve" smooth="yes"/>
			<point x="330" y="576"/>
			<point x="235" y="733"/>
			<point x="74" y="848" type="curve"/>
			<point x="50" y="824" type="line"/>
			<point x="158" y="719"/>
			<point x="215" y="540"/>
		</contour>
	</outline>
</glyph>
<glyph name="uni0394.ss02" format="2">
	<advance width="784"/>
	<outline>
		<contour>
			<point x="779" y="-6" type="curve"/>
			<point x="784" y="23" type="line"/>
			<point x="743" y="45"/>
			<point x="694" y="102"/>
			<point x="659" y="179" type="curve" smooth="yes"/>
			<point x="396" y="760" type="line"/>
			<point x="372" y="760" type="line"/>
			<point x="138" y="200" type="line" smooth="yes"/>
			<point x="101" y="112"/>
			<point x="37" y="40"/>
			<point x="0" y="23" type="curve"/>
			<point x="4" y="-6" type="line"/>
			<point x="120" y="0"/>
			<point x="156" y="0"/>
			<point x="272" y="0" type="curve" smooth="yes"/>
			<point x="448" y="0" type="line" smooth="yes"/>
			<point x="589" y="0"/>
			<point x="638" y="0"/>
		</contour>
		<contour>
			<point x="176" y="188" type="curve" smooth="yes"/>
			<point x="362" y="634" type="line"/>
			<point x="346" y="634" type="line"/>
			<point x="551" y="173" type="line" smooth="yes"/>
			<point x="590" y="86"/>
			<point x="626" y="40"/>
			<point x="505" y="40" type="curve" smooth="yes"/>
			<point x="207" y="40" type="line" smooth="yes"/>
			<point x="98" y="40"/>
			<point x="139" y="100"/>
		</contour>
	</outline>
</glyph>
